<mxfile host="app.diagrams.net" modified="2024-03-24T15:29:08.045Z" agent="Mozilla/5.0 (X11; Linux x86_64; rv:124.0) Gecko/20100101 Firefox/124.0" version="24.1.0" etag="fNmYfAQeO0KaIiDwm2f4" type="github">
  <diagram name="Page-1" id="ymXuH3MsxIM8dGg-b_RW">
    <mxGraphModel>
      <root>
        <mxCell id="0" />
        <mxCell id="1" parent="0" />
      </root>
    </mxGraphModel>
  </diagram>
</mxfile>
